<svg width="248" height="182" viewBox="0 0 248 182" fill="none" xmlns="http://www.w3.org/2000/svg">
<path d="M78.1794 62.7801C77.7558 65.0777 75.9815 66.0152 74.3194 64.8909C72.9247 63.919 72.8661 62.8818 73.9875 58.738C76.8005 48.4133 81.5882 39.8044 86.5601 36.2605C88.8806 34.5715 90.8715 33.8755 92.6918 34.2042C94.9003 34.577 96.1235 35.7464 96.8962 38.0172C97.4646 39.8173 97.4599 41.1727 96.9309 45.8313C96.7297 47.8423 96.3579 50.8781 96.2391 52.6409C96.1203 54.4036 95.8683 56.5038 95.8501 57.2611C95.7427 57.9675 95.6354 58.674 95.6354 58.674C95.6546 58.744 96.5959 58.3356 97.5563 57.9972C99.8971 57.2053 102.587 60.9819 97.8805 63.0238L95.1966 64.2106L94.7607 72.2289C94.1744 82.1691 94.1525 85.1089 94.4353 87.5139C94.7182 89.9189 94.7383 90.8161 94.2236 91.4085C93.7089 92.0009 92.5577 92.4668 91.7813 92.3787C90.4383 92.1448 89.7433 90.9812 89.3838 88.2963C89.031 85.9105 89.0462 82.6715 89.507 74.195C89.7436 69.8423 89.9428 66.1768 89.8729 66.1959C89.8729 66.1959 88.4418 66.7385 86.7691 67.4977C82.1327 69.5204 82.4825 69.4246 81.5978 69.2156C79.5992 68.7853 78.9665 66.4762 80.3966 65.1064C80.9813 64.4948 83.1054 63.4614 87.2396 61.802C88.7914 61.1511 90.1334 60.5577 90.1842 60.4686C90.4449 60.3219 90.7659 57.3753 91.2182 52.4369C91.3313 51.2022 91.6015 48.3448 91.8152 46.1047C92.3384 41.9742 92.3748 40.4597 92.1447 39.62C92.0296 39.2002 92.0296 39.2002 91.3299 39.3919C90.4202 39.6412 88.9642 40.642 87.7949 41.8651C86.0408 43.6998 83.5765 47.6099 82.1043 51.0223C80.5812 54.524 78.7995 59.8267 78.1794 62.7801ZM104.765 87.6926C104.116 87.7951 102.76 86.9632 102.498 86.2826C102.128 85.4813 101.948 83.7252 101.898 79.1501C101.766 70.1589 102.007 63.6235 102.667 51.4815C103.383 38.7222 103.986 31.8618 104.494 30.9704C104.881 30.1872 105.434 29.7348 106.223 29.5938C107.101 29.5037 107.916 29.7318 108.477 30.4056C109.216 31.1811 109.248 31.8492 109.016 34.8466C108.469 40.2624 107.488 55.351 107.186 63.0319C106.937 68.441 106.886 78.686 107.05 82.8537C107.181 85.5262 107.105 86.0735 106.489 86.8442C106.235 87.2899 105.433 87.6599 104.765 87.6926ZM113.577 44.0534C112.743 43.7553 112.144 42.9416 111.946 41.9428C111.817 40.9248 112.304 38.3089 112.749 37.7356C112.991 37.519 113.493 37.1557 113.913 37.0407C114.523 36.7981 114.822 36.7914 115.389 36.9371C116.312 37.286 116.873 37.9598 117.052 38.8886C117.308 40.0974 116.751 42.7324 116.166 43.344C115.582 43.9556 114.392 44.2815 113.577 44.0534ZM130.015 50.2317C131.517 50.4972 132.358 51.9215 131.991 53.6019C131.454 56.3069 128.601 65.6644 127.485 68.4529C125.632 72.9476 123.713 75.2788 121.093 76.1474C120.482 76.3899 119.693 76.5308 119.305 76.4867C116.594 76.4772 113.843 74.6733 112.37 71.7671C111.158 69.5414 110.504 65.5078 110.626 60.7352C110.685 57.108 111.478 50.1202 112.011 48.7705C112.627 47.1726 114.694 46.7565 115.917 47.9259C116.707 48.6122 116.886 49.541 116.589 51.2022C115.472 58.655 115.371 64.3248 116.348 67.8934C116.732 69.2929 116.917 69.6936 117.369 70.2466C119.632 73.012 121.519 70.8398 124.283 62.2588C124.955 60.0436 126.539 54.5692 127.16 52.4432C127.477 50.852 128.602 50.017 130.015 50.2317ZM133.257 37.8335C133.996 38.609 134.175 39.5378 133.739 42.0646C133.412 44.7121 133.317 45.1894 133.457 45.1511C133.457 45.1511 133.831 44.597 134.257 43.9538C135.908 41.4702 138.54 38.7181 140.708 37.2965C142.164 36.2957 143.856 35.6065 145.243 35.4521C149.703 34.9823 153.467 38.0131 155.312 43.3751C155.766 44.7554 155.874 44.8762 156.065 44.7487C158.042 43.4546 161.508 41.8278 162.476 41.7885C164.461 41.6207 165.832 43.878 164.707 45.5402C164.282 46.1834 164.231 46.2725 161.096 47.7335C160.173 48.2118 158.819 49.0343 157.986 49.5634L156.371 50.5326L156.347 51.818C156.344 54.8279 155.548 59.334 154.527 62.4724C153.278 66.4255 150.948 70.8253 148.654 73.7106C144.696 78.4814 140.74 80.2424 137.48 78.5028C136.053 77.69 135.365 76.8254 134.816 75.0952C134.286 73.435 134.221 72.0988 134.632 70.0302C135.333 66.0014 138.553 60.4551 142.741 55.6968C144.425 53.8812 147.647 50.8166 149.949 49.0576L151.175 48.0444L150.97 46.7465C150.528 44.3099 149.208 41.9634 147.922 41.1122C146.992 40.4643 146.375 40.4078 145.255 40.7145C142.736 41.4048 139.914 44.2844 137.133 48.9583C134.3 53.7215 131.903 60.6222 131.616 65.0641C131.297 69.6651 131.357 77.0211 131.704 79.935C132.006 82.41 132.984 86.8059 133.361 87.9063C134.108 89.808 132.621 91.7951 130.623 91.3648C130.235 91.3207 129.7 91.0159 129.394 90.7236C128.91 90.3296 128.744 89.999 128.329 88.7586C127.115 84.8784 126.42 78.2232 126.575 69.4544C126.657 63.7146 126.832 60.5073 127.636 51.6359C128.439 42.7645 128.945 39.3913 129.503 38.4107C130.284 37.1435 132.161 36.8549 133.257 37.8335ZM149.873 60.588C150.444 58.5511 151.171 54.8913 150.993 54.7897C150.814 54.6881 148.246 57.1219 146.753 58.81C143.131 62.8868 140.229 67.6691 139.596 70.8515C139.28 72.4427 139.396 73.6898 139.842 73.9438C140.236 74.287 141.108 73.8978 142.233 73.0628C144.935 71.1188 148.466 65.3367 149.873 60.588ZM59.2597 114.287C60.1579 115.094 60.319 116.78 59.5819 117.659C58.9464 118.36 58.1958 118.64 52.1081 120.308C41.4913 123.293 39.5513 123.9 39.5388 124.129C38.0644 147.026 37.8728 151.817 38.1644 156.176C38.5202 161.043 39.0705 163.601 40.2112 165.019C40.8994 165.883 41.1295 166.723 40.8822 167.468C40.5085 168.849 38.9949 169.64 37.7536 169.228C35.5892 168.467 33.994 164.841 33.3573 159.223C32.83 154.553 32.7867 150.277 33.2868 142.768C33.4305 140.547 33.7428 135.647 33.9421 131.981L34.3732 125.318L28.0248 127.133C21.7655 128.999 21.6256 129.037 20.76 128.898C19.7353 128.728 19.0538 128.162 18.7853 127.182C18.5169 126.203 18.7958 125.299 19.4697 124.738C20.0735 124.196 23.6038 123.079 30.4612 121.2L34.7996 120.011L34.9567 118.388C35.2088 116.288 35.3736 115.791 36.1874 115.192C37.0012 114.593 37.8093 114.522 38.6816 114.96C39.8213 115.551 40.1721 116.282 40.0917 118.185C40.0984 118.484 40.1876 118.535 40.2575 118.515C40.3083 118.426 44.2077 117.283 48.9659 115.979C58.4123 113.39 58.2532 113.359 59.2597 114.287ZM41.6994 153.703C41.7664 151.202 41.8506 147.117 41.9177 144.616C42.1213 128.612 42.948 112.136 43.5633 110.538C43.9314 109.685 44.4144 109.252 45.2541 109.022C46.5137 108.677 47.9208 109.419 48.2851 110.749C48.3618 111.029 48.3254 112.543 48.1683 114.166C47.7534 118.417 47.4057 125.659 47.1989 133.69C47.0763 137.635 47.0103 140.963 46.9787 141.123C46.9346 141.511 47.017 141.263 48.1461 138.245C50.9122 131.318 54.1251 125.473 56.7946 122.861C58.6186 121.007 60.5712 120.171 62.1624 120.487C63.2954 120.779 64.0661 121.395 64.7419 122.489C65.7111 124.104 65.8597 126.019 65.443 134.107C65.0953 141.349 65.1117 144.429 65.6294 146.318C65.9429 147.737 66.3637 148.449 66.7136 148.353C67.5532 148.123 69.6973 142.495 71.8011 135.073C73.3538 129.758 73.5503 129.102 74.2941 128.523C75.1778 127.904 75.9667 127.763 76.9282 128.252C78.227 128.874 78.5721 130.134 77.9635 132.031C77.7987 132.527 77.146 134.812 76.4933 137.098C73.0966 148.861 71.0013 152.745 67.655 153.436C65.2184 153.878 62.9897 152.608 61.5231 150.001C60.1455 147.445 59.8483 143.614 60.2889 134.241C60.6318 128.354 60.6998 126.681 60.5532 126.42C60.4257 126.229 59.0723 127.879 58.0879 129.503C57.1668 130.808 55.1607 134.743 54.0373 137.233C51.8798 142.262 49.3121 150.188 47.9195 156.362C47.1154 159.741 47.033 159.99 46.5183 160.582C46.0227 161.245 45.0431 161.513 44.0184 161.342C42.548 160.918 41.8473 160.282 41.6421 158.984C41.5462 158.635 41.5624 156.223 41.6994 153.703ZM82.4546 147.576C78.6414 146.289 75.5126 142.557 74.1513 137.589C73.02 133.46 73.2059 129.197 74.702 124.499C75.7927 121.341 78.2886 117.272 80.5325 115.303C83.6027 112.506 87.4004 111.541 90.418 112.67C91.4302 113.07 92.9716 114.302 93.5199 115.205C94.9991 117.583 95.0414 121.032 93.4743 124.922C92.2752 127.959 90.1914 130.786 87.9408 132.456C85.5186 134.324 82.1417 136.001 80.0358 136.277L78.9478 136.425L79.3945 137.506C80.984 141.66 84.1808 143.718 87.7562 143.039C92.1204 142.219 95.1761 137.997 100.481 125.785C101.421 123.723 102.525 121.163 102.747 120.877C103.917 119.653 106.036 119.975 106.757 121.508C107.146 122.379 106.741 123.92 105.338 127.313C102.445 134.049 99.7973 139.213 97.6244 141.99C96.1886 143.888 94.0654 145.748 92.5011 146.628C91.1275 147.381 88.2778 148.237 86.8716 148.321C85.8153 148.31 83.5368 147.956 82.4546 147.576ZM78.7674 129.177C78.3821 131.615 78.2738 131.494 79.8132 131.072C80.7229 130.823 81.7341 130.396 82.7262 129.898C85.3334 128.431 86.8651 126.883 88.0968 124.515C90.1221 120.65 90.1057 117.57 88.0754 117.299C87.5281 117.223 87.0191 117.287 86.2686 117.568C83.0565 118.749 79.6519 123.895 78.7674 129.177ZM128.281 137.652C125.048 137.108 122.526 135.317 120.804 132.328C119.943 130.834 119.035 127.246 118.842 124.892C118.327 114.501 122.941 104.435 129.549 101.647C131.902 100.626 134.581 100.794 136.702 101.944C138.86 103.233 139.931 104.67 140.551 107.208C141.025 109.485 140.683 110.708 139.182 111.269C138.38 111.639 137.585 111.481 136.744 110.884C136.171 110.439 136.132 110.299 135.711 108.76C135.327 107.36 135.161 107.03 134.766 106.687C133.817 105.969 133.359 105.944 131.96 106.327C130.77 106.653 130.49 106.73 129.524 107.596C125.469 111.19 123.086 119.516 124.138 126.375C124.586 129.11 125.868 131.317 127.434 132.091C129.179 132.967 131.47 133.092 133.27 132.523C134.231 132.185 134.593 131.86 135.82 130.847C137.371 129.369 138.413 127.955 139.644 125.586C140.755 123.326 142.983 118.277 143.947 115.756C144.429 114.496 145.177 112.56 145.679 111.37C146.725 108.6 147.431 107.881 148.895 108.006C150.129 108.119 151.174 109.187 151.15 110.472C151.164 111.07 150.104 114.069 148.157 119.041C146.805 122.345 144.102 128.126 142.914 130.107C142.234 131.196 141.262 132.59 140.729 133.113C138.409 135.629 135.579 137.382 133.353 137.767C131.775 138.049 130.031 138 128.281 137.652ZM149.687 128.251C148.126 126.948 147.482 125.695 146.772 123.106C145.565 118.698 145.622 113.416 146.785 107.23C147.532 103.64 148.141 101.743 149.239 99.7119C150.693 97.0567 152.314 95.5594 154.763 94.8883C157.492 94.1406 160.872 94.9447 162.866 96.7304C163.171 97.0227 163.458 97.2451 163.509 97.156C163.509 97.156 163.845 96.462 164.194 95.5389C165.393 92.5021 166.727 90.7825 168.127 90.399C169.526 90.0155 171.08 91.0191 171.642 92.5201C172.127 93.7413 172.109 94.4986 171.68 102.816C171.308 111.343 171.229 114.073 171.352 116.447C171.625 120.735 172.154 121.568 173.406 120.097C174.244 119.039 175.944 113.985 178.453 105.022C179.79 100.293 179.872 100.044 180.476 99.5029C181.875 98.2922 183.931 98.9324 184.41 100.682C184.659 101.591 184.584 102.139 183.113 107.206C181.073 114.31 179.678 118.829 178.669 120.911C177.628 123.152 176.789 124.21 175.155 125.109C174.182 125.676 173.622 125.83 172.655 125.869C171.02 125.941 169.403 125.256 168.281 123.908C166.529 121.906 165.958 117.624 166.393 108.778C166.454 106.806 166.452 105.151 166.452 105.151C166.363 105.1 165.792 107.137 165.127 109.652C162.593 119.072 161.921 121.288 160.595 124.134C159.421 126.712 157.533 128.884 155.772 129.593C153.94 130.32 151.464 129.795 149.687 128.251ZM150.982 115.408C150.892 120.022 151.838 123.749 153.284 124.632C153.749 124.956 154.01 124.81 154.766 124C155.916 122.707 157.515 118.658 158.959 113.222C159.263 111.86 160.08 109.079 160.581 107.061L161.556 103.483L161.167 102.612C159.713 99.7758 156.823 98.8375 154.922 100.411C152.901 102.094 151.102 108.981 150.982 115.408ZM187.411 113.1C186.139 119.165 185.632 120.884 184.856 121.623C184.081 122.362 183.101 122.631 182.038 122.32C180.339 121.883 179.414 119.88 179.346 116.062C179.214 112.562 179.331 103.653 179.541 98.1043C179.838 91.7788 180.165 88.304 180.552 87.5209C181.206 86.0629 183.382 85.7676 184.535 86.9562C185.185 87.6808 185.294 88.6288 185.062 90.799C184.899 92.95 184.37 103.1 184.478 103.221C184.478 103.221 184.992 101.801 185.569 100.063C188.784 90.3809 192.658 84.2039 196.017 83.2836C197.486 82.8809 198.836 83.4138 199.868 84.7107C200.486 85.5945 200.96 87.872 201.225 91.0342C201.387 93.5475 201.886 96.1941 202.262 96.4673C202.549 96.6896 203.534 95.893 204.747 94.2817C205.586 93.2244 206.565 92.1287 207.245 91.867C209.166 91.1902 210.784 92.7027 210.424 94.6822C210.12 96.0443 207.242 99.5412 205.385 100.727C203.388 101.951 201.365 101.979 199.633 100.874C198.149 99.8511 197.473 98.7574 196.795 96.0093C196.539 94.8005 196.289 93.0636 196.231 92.0265C196.172 90.9893 195.993 90.0605 195.954 89.9206C195.769 89.5199 193.249 94.0472 192.144 96.6066C190.178 101.509 188.967 105.602 187.411 113.1ZM220.165 107.51C217.721 112.317 213.695 114.097 210.091 111.925C208.2 110.788 207.071 109.142 206.324 106.413C205.518 103.474 205.348 99.8342 205.903 95.5447C206.772 88.0095 209.527 82.1393 213.501 79.621C216.362 77.7086 220.18 77.6404 223.23 79.4376L224.37 80.028L224.569 76.3625C224.631 74.3898 224.933 71.3733 225.071 69.6805C225.298 68.0385 225.492 65.7283 225.535 64.5129C225.793 61.8845 225.888 61.4072 226.364 60.6748C227.406 59.2609 229.716 59.4554 230.546 61.1089C230.877 61.7703 230.797 63.673 230.243 68.7898C229.652 74.5938 229.048 86.1185 228.57 101.671C228.43 106.374 228.369 109.174 228.457 113.061C228.641 118.126 228.77 119.972 229.226 123.006C229.585 125.691 229.611 126.06 228.893 127.009C228.449 127.583 227.348 127.959 226.553 127.801C225.757 127.643 225.075 127.077 224.737 126.117C223.69 123.395 223.189 113.602 223.406 103.688C223.473 101.187 223.597 98.8962 223.54 98.6862C223.571 98.5271 223.267 99.062 223.058 99.9467C222.284 102.34 220.87 105.963 220.165 107.51ZM212.222 90.052C210.396 95.743 210.158 103.933 211.713 106.591C212.115 107.233 213.045 107.881 213.395 107.785C213.535 107.747 213.916 107.492 214.279 107.167C215.868 105.829 217.574 101.073 220.494 90.0421L221.856 84.8544L221.334 84.3205C219.926 82.7505 217.094 82.8493 215.372 84.5249C214.355 85.4806 212.831 88.155 212.222 90.052Z" fill="black"/>
</svg>
