<svg width="267" height="195" viewBox="0 0 267 195" fill="none" xmlns="http://www.w3.org/2000/svg">
<path d="M12.6947 104.647C12.2982 95.1535 12.8016 86.9061 14.7375 73.5411C15.2483 69.9081 16.0863 66.1023 16.5058 65.221C16.8482 64.5896 17.4894 63.9451 18.0458 63.78C18.8109 63.5529 19.9009 63.9104 20.5453 64.5516C21.3419 65.4504 21.3886 66.1177 20.6995 68.8954C20.1365 71.333 19.492 75.5355 18.6735 82.2114C17.7321 90.5131 17.4418 97.1836 17.8166 104.565C17.9263 107.484 18.2011 110.959 18.2913 111.008C18.3815 111.057 18.4587 110.807 18.4456 110.508C18.5609 109.112 20.8271 96.8599 21.5031 93.7833C23.4388 85.2621 25.7516 78.5209 28.4828 73.6991C30.5086 70.0704 31.9584 68.5805 33.8776 68.1622C35.0111 67.9014 36.1011 68.2589 36.9466 69.0675C37.2998 69.4925 37.4932 69.8891 37.8235 71.002C38.3191 72.6712 38.3277 74.485 37.7124 80.5709C37.1613 86.1079 36.9852 89.3388 36.8014 92.7991C36.7307 95.6203 36.7665 100.075 36.9262 100.103C37.0371 100.222 38.1076 97.7091 39.8161 93.2664C42.5462 86.4015 43.8123 83.5281 45.9849 79.6289C49.0453 73.8767 51.0255 71.6239 53.0197 71.7131C54.5552 71.787 55.6713 72.7423 56.0277 74.4529C56.1027 74.9604 56.1374 77.3719 56.0537 79.8943C55.773 90.4217 55.912 95.2241 56.7183 99.9798C57.129 102.128 57.0442 102.608 56.2846 103.363C55.288 104.34 53.822 104.245 52.7961 103.339C52.2831 102.886 52.2418 102.747 51.8778 101.265C51.0878 98.0941 50.7913 92.506 50.8958 85.2095C50.9024 82.9371 50.8242 81.1439 50.8242 81.1439C50.7133 81.0255 48.1963 86.3136 46.979 89.0967C46.4541 90.3878 45.1803 93.4904 44.2283 95.8922C41.596 102.577 40.5613 104.7 39.0626 106.28C37.9683 107.438 36.3479 107.843 34.946 107.2C34.044 106.711 33.4691 106.049 32.8193 104.879C31.3544 101.984 31.3198 94.729 32.5677 81.3413C32.7982 78.5483 33.0134 76.2139 32.9928 76.1444C32.9102 75.8662 31.631 78.4407 30.7072 80.6826C29.6291 83.4245 27.8336 89.1039 26.9337 92.701C26.0337 96.2981 24.6436 103.598 23.9273 108.578C22.2632 119.29 22.1089 119.789 21.1819 120.746C20.4504 121.341 19.268 121.692 18.3791 121.502C17.5803 121.361 16.5957 120.593 15.6883 119.576C15.1623 118.824 14.9896 118.497 14.1843 115.785C13.1933 112.446 12.9966 110.764 12.6947 104.647ZM62.3499 98.081C60.7622 96.8116 60.0917 95.5727 59.3278 92.9992C58.027 88.6174 57.9728 83.3357 59.0054 77.126C59.676 73.5213 60.2444 71.6118 61.2997 69.5579C62.6974 66.8725 64.2862 65.3413 66.7206 64.6187C69.4332 63.8135 72.8293 64.5461 74.8604 66.2893C75.1723 66.5751 75.4635 66.7914 75.5124 66.7012C75.5124 66.7012 75.8341 66.0002 76.1634 65.07C77.2981 62.0086 78.5957 60.2611 79.9868 59.8482C81.3778 59.4352 82.9525 60.4058 83.5459 61.8946C84.0566 63.1053 84.0544 63.8628 83.801 72.1873C83.6095 80.7205 83.5877 83.4516 83.7615 85.8218C84.1244 90.1036 84.671 90.9252 85.8915 89.4277C86.7077 88.3529 88.2999 83.2637 90.6193 74.2502C91.8561 69.4934 91.9333 69.2435 92.5256 68.6893C93.8982 67.4493 95.9673 68.046 96.4835 69.7848C96.7519 70.689 96.6878 71.2378 95.3249 76.3347C93.4348 83.4801 92.136 88.0281 91.1709 90.131C90.1776 92.3936 89.3614 93.4684 87.7465 94.4018C86.7857 94.9898 86.2293 95.1549 85.2632 95.2147C83.6298 95.3211 81.9986 94.6701 80.8488 93.3464C79.0546 91.3815 78.3929 87.1127 78.6409 78.26C78.6605 76.2864 78.6236 74.6324 78.6236 74.6324C78.5334 74.5835 78.0063 76.632 77.3944 79.1598C75.0598 88.6319 74.4348 90.8609 73.1687 93.7342C72.0493 96.337 70.2082 98.5485 68.4618 99.294C66.6458 100.06 64.1593 99.5873 62.3499 98.081ZM63.374 85.2138C63.3814 89.8282 64.4062 93.5351 65.87 94.3872C66.3417 94.7013 66.5992 94.5491 67.3382 93.7243C68.4609 92.4072 69.9738 88.3253 71.303 82.8601C71.578 81.4918 72.3366 78.6935 72.7942 76.6656L73.6941 73.0684L73.2866 72.2055C71.7728 69.4006 68.8636 68.5235 66.9965 70.1373C65.0109 71.8619 63.3578 78.7856 63.374 85.2138ZM97.3134 41.3091C97.8394 42.0611 97.8937 42.4991 97.6785 44.8335C97.0839 50.9888 96.2956 66.4349 96.5586 66.8109C96.6488 66.8598 97.027 65.8394 97.4824 64.569C98.6246 61.2783 99.6875 58.995 100.846 57.2889C102.172 55.3816 103.14 54.5644 104.49 54.0124C105.443 53.6538 105.742 53.6407 106.631 53.8309C109.826 54.3961 110.977 57.7629 109.485 61.9143C108.7 64.115 105.752 69.2281 102.367 74.3956L100.964 76.5527L101.498 77.0755C102.524 77.9819 104.487 78.9883 105.564 79.047C107.857 79.1231 110.474 77.7408 112.691 75.2663C114.888 72.7223 117.348 67.7537 118.382 63.5871C118.958 61.4483 119.154 61.0875 119.885 60.492C121.18 59.502 123.152 60.2791 123.647 61.9484C124.081 63.409 121.886 70.0392 119.714 73.9385C114.908 82.4792 107.58 86.0925 101.369 83.0168C100.578 82.6462 99.6761 82.1571 99.3436 81.8018C98.9621 81.5366 98.622 81.4105 98.6426 81.4801C98.4752 81.6811 97.8285 86.641 97.6339 89.045C97.4111 91.6086 97.285 91.9488 96.5742 92.6138C95.9819 93.1681 95.4951 93.3126 94.7169 93.2409C93.6193 93.1126 92.5522 92.0671 92.2012 90.8847C91.7676 89.4241 91.5243 82.2308 91.4388 70.9796C91.4554 58.0331 92.311 43.3238 93.1913 41.7002C94.0716 40.0766 96.2126 39.8952 97.3134 41.3091ZM127.583 79.6248C123.744 78.4184 120.537 74.7538 119.071 69.8156C117.853 65.7119 117.948 61.4453 119.345 56.7169C120.369 53.537 122.778 49.4161 124.98 47.4002C127.99 44.5389 131.767 43.4935 134.808 44.5586C135.828 44.9368 137.395 46.1366 137.962 47.0278C139.491 49.3741 139.607 52.8213 138.122 56.7434C136.987 59.8048 134.964 62.6759 132.749 64.393C130.367 66.311 127.026 68.0595 124.926 68.3801L123.842 68.5507L124.311 69.6222C125.988 73.7411 129.227 75.731 132.788 74.9769C137.134 74.0652 140.099 69.7791 145.146 57.4587C146.041 55.3765 147.091 52.7944 147.307 52.5031C148.451 51.2555 150.576 51.5327 151.329 53.0498C151.737 53.9127 151.364 55.4614 150.034 58.8835C147.283 65.679 144.745 70.8975 142.632 73.7198C141.236 75.6476 139.153 77.5527 137.607 78.4655C136.25 79.2469 133.419 80.1629 132.015 80.277C130.958 80.2879 128.673 79.9824 127.583 79.6248ZM123.508 61.3085C123.174 63.7537 123.064 63.6353 124.594 63.181C125.498 62.9126 126.5 62.4638 127.481 61.9455C130.057 60.4241 131.556 58.8439 132.737 56.4499C134.68 52.543 134.599 49.4642 132.563 49.2359C132.015 49.1718 131.507 49.2468 130.763 49.5435C127.576 50.7921 124.281 56.0084 123.508 61.3085ZM189.477 21.3674C190.392 22.1553 190.589 23.8376 189.87 24.732C189.25 25.446 188.505 25.7426 182.454 27.5389C171.903 30.7467 169.976 31.3944 169.968 31.6237C168.978 54.5467 168.887 59.3414 169.271 63.6928C169.729 68.5517 170.334 71.0969 171.504 72.4902C172.21 73.3401 172.458 74.1747 172.227 74.9245C171.882 76.3134 170.386 77.1361 169.136 76.7502C166.956 76.0351 165.284 72.4444 164.529 66.841C163.903 62.1832 163.77 57.909 164.111 50.3908C164.208 48.1673 164.417 43.2616 164.539 39.5928L164.829 32.9222L158.52 34.8706C152.302 36.8679 152.163 36.9092 151.294 36.7886C150.266 36.6397 149.573 36.0887 149.284 35.1149C148.995 34.1412 149.255 33.2316 149.917 32.6567C150.509 32.1025 154.015 30.9104 160.831 28.887L165.143 27.6069L165.266 25.9811C165.474 23.8761 165.628 23.3762 166.429 22.76C167.23 22.1438 168.036 22.0558 168.918 22.4753C170.07 23.0416 170.436 23.7654 170.396 25.6694C170.409 25.9682 170.499 26.0171 170.568 25.9965C170.617 25.9063 174.492 24.6805 179.221 23.2765C188.611 20.4892 188.451 20.461 189.477 21.3674ZM172.753 61.1455C172.767 58.6438 172.765 54.5576 172.779 52.0559C172.645 36.0512 173.123 19.5618 173.705 17.9513C174.055 17.0906 174.529 16.6472 175.363 16.3994C176.615 16.0278 178.038 16.7407 178.43 18.0622C178.513 18.3405 178.508 19.8554 178.386 21.4812C178.06 25.7402 177.866 32.9878 177.829 41.0211C177.789 44.9682 177.794 48.2969 177.765 48.4567C177.73 48.8457 177.807 48.5958 178.872 45.5551C181.491 38.5716 184.58 32.6597 187.193 29.9918C188.978 28.0998 190.912 27.2228 192.51 27.5054C193.649 27.7728 194.432 28.3727 195.131 29.4519C196.134 31.0462 196.323 32.9578 196.077 41.0531C195.883 48.3006 195.964 51.3794 196.522 53.2574C196.865 54.6691 197.301 55.3722 197.649 55.269C198.483 55.0212 200.508 49.3495 202.455 41.8846C203.895 36.5378 204.077 35.8781 204.809 35.2826C205.679 34.6458 206.465 34.4882 207.436 34.9566C208.748 35.5511 209.12 36.8031 208.551 38.7125C208.397 39.2124 207.793 41.5109 207.188 43.8094C204.041 55.6419 202.028 59.5694 198.697 60.3311C196.27 60.8245 194.015 59.6018 192.494 57.0261C191.063 54.4994 190.685 50.6762 190.927 41.2953C191.146 35.4029 191.179 33.7282 191.026 33.4706C190.895 33.2826 189.577 34.9605 188.627 36.6048C187.733 37.9295 185.811 41.9059 184.74 44.4185C182.689 49.4925 180.29 57.4703 179.028 63.6724C178.295 67.0685 178.218 67.3185 177.716 67.9216C177.235 68.5943 176.261 68.8834 175.233 68.7344C173.754 68.341 173.04 67.7204 172.807 66.4272C172.704 66.0794 172.669 63.6679 172.753 61.1455ZM213.37 54.1593C209.53 52.9529 206.323 49.2882 204.857 44.35C203.639 40.2463 203.735 35.9797 205.131 31.2513C206.155 28.0715 208.565 23.9505 210.767 21.9346C213.777 19.0733 217.553 18.0279 220.594 19.093C221.615 19.4712 223.182 20.6711 223.749 21.5622C225.278 23.9086 225.393 27.3558 223.909 31.2778C222.774 34.3392 220.75 37.2104 218.535 38.9274C216.153 40.8455 212.812 42.594 210.713 42.9145L209.628 43.0851L210.098 44.1567C211.774 48.2755 215.014 50.2655 218.574 49.5113C222.92 48.5996 225.886 44.3135 230.932 31.9931C231.828 29.9109 232.878 27.3288 233.094 27.0375C234.237 25.79 236.363 26.0671 237.116 27.5843C237.523 28.4472 237.151 29.9958 235.82 33.418C233.07 40.2134 230.532 45.4319 228.418 48.2542C227.023 50.1821 224.939 52.0871 223.394 52.9999C222.037 53.7813 219.206 54.6974 217.801 54.8114C216.745 54.8223 214.46 54.5168 213.37 54.1593ZM209.295 35.8429C208.961 38.2881 208.85 38.1697 210.38 37.7154C211.285 37.447 212.287 36.9982 213.268 36.4799C215.844 34.9585 217.342 33.3784 218.524 30.9843C220.467 27.0774 220.385 23.9986 218.35 23.7704C217.801 23.7062 217.294 23.7812 216.549 24.0779C213.363 25.3265 210.068 30.5428 209.295 35.8429Z" fill="url(#paint0_linear_343_577)"/>
<path d="M55.7799 166.397C53.4378 171.254 49.4505 173.119 45.8012 171.024C43.8864 169.927 42.7236 168.305 41.9183 165.592C41.0512 162.671 40.8046 159.036 41.2687 154.735C41.9786 147.184 44.6087 141.256 48.5287 138.655C51.3489 136.682 55.1645 136.534 58.2519 138.266L59.4039 138.832L59.5257 135.163C59.5453 133.19 59.7834 130.168 59.8856 128.472C60.078 126.826 60.2236 124.512 60.2411 123.296C60.4433 120.663 60.528 120.184 60.9888 119.441C62.0007 118.006 64.3144 118.151 65.1783 119.787C65.5239 120.441 65.4836 122.345 65.0379 127.473C64.5694 133.288 64.2094 144.823 64.0601 160.382C64.0187 165.086 64.0175 167.887 64.187 171.772C64.4781 176.832 64.6465 178.674 65.1659 181.698C65.582 184.375 65.6157 184.744 64.918 185.708C64.4855 186.29 63.3933 186.69 62.5945 186.549C61.7957 186.407 61.1024 185.856 60.7438 184.903C59.6397 182.204 58.9314 172.424 58.9392 162.507C58.9534 160.006 59.0296 157.713 58.9676 157.504C58.9959 157.344 58.7024 157.885 58.5122 158.774C57.7895 161.184 56.4516 164.835 55.7799 166.397ZM47.4699 149.111C45.7647 154.839 45.6992 163.032 47.3108 165.656C47.726 166.29 48.6693 166.918 49.017 166.815C49.1561 166.774 49.5322 166.511 49.8875 166.178C51.4482 164.807 53.0534 160.016 55.7402 148.926L56.9922 143.711L56.4586 143.188C55.0176 141.648 52.1888 141.807 50.5021 143.518C49.5055 144.495 48.0383 147.201 47.4699 149.111ZM76.5273 162.584C72.6878 161.378 69.4809 157.713 68.015 152.775C66.7968 148.671 66.8926 144.404 68.2892 139.676C69.313 136.496 71.7224 132.375 73.9243 130.359C76.9346 127.498 80.7112 126.453 83.7519 127.518C84.7723 127.896 86.3394 129.096 86.9067 129.987C88.4357 132.333 88.5508 135.781 87.0662 139.703C85.9315 142.764 83.9079 145.635 81.6931 147.352C79.3108 149.27 75.9701 151.019 73.8705 151.339L72.7859 151.51L73.2553 152.581C74.9321 156.7 78.1717 158.69 81.7319 157.936C86.0779 157.024 89.0438 152.738 94.0899 140.418C94.9854 138.336 96.0353 135.754 96.2516 135.462C97.3949 134.215 99.5206 134.492 100.274 136.009C100.681 136.872 100.308 138.421 98.9781 141.843C96.2273 148.638 93.6896 153.857 91.5758 156.679C90.1804 158.607 88.097 160.512 86.5516 161.425C85.1942 162.206 82.3632 163.122 80.9591 163.236C79.9028 163.247 77.6173 162.942 76.5273 162.584ZM72.4524 144.268C72.1187 146.713 72.0079 146.594 73.5381 146.14C74.4423 145.872 75.4443 145.423 76.4256 144.905C79.0013 143.383 80.4999 141.803 81.6813 139.409C83.6245 135.502 83.5431 132.423 81.5076 132.195C80.9588 132.131 80.4513 132.206 79.7068 132.503C76.5204 133.751 73.2253 138.968 72.4524 144.268ZM105.153 156.735C101.909 156.26 99.35 154.523 97.5656 151.571C96.6734 150.095 95.69 146.527 95.4466 144.178C94.7122 133.8 99.1128 123.639 105.661 120.712C107.992 119.641 110.674 119.753 112.818 120.857C115.003 122.101 116.104 123.515 116.778 126.039C117.3 128.306 116.983 129.535 115.494 130.129C114.701 130.515 113.902 130.374 113.049 129.795C112.467 129.362 112.425 129.223 111.971 127.693C111.558 126.302 111.385 125.975 110.983 125.64C110.019 124.942 109.561 124.927 108.17 125.34C106.987 125.691 106.709 125.774 105.761 126.66C101.783 130.339 99.5764 138.714 100.773 145.548C101.279 148.274 102.607 150.453 104.189 151.194C105.952 152.033 108.245 152.109 110.033 151.503C110.986 151.144 111.341 150.812 112.547 149.773C114.066 148.262 115.078 146.827 116.259 144.432C117.322 142.149 119.442 137.055 120.353 134.514C120.809 133.243 121.516 131.293 121.992 130.092C122.98 127.301 123.67 126.566 125.136 126.661C126.373 126.748 127.44 127.793 127.443 129.079C127.469 129.677 126.474 132.697 124.632 137.709C123.35 141.041 120.769 146.878 119.624 148.883C118.967 149.986 118.025 151.401 117.502 151.934C115.236 154.499 112.444 156.312 110.226 156.743C108.655 157.058 106.911 157.046 105.153 156.735ZM125.194 116.2C124.353 115.919 123.737 115.118 123.518 114.124C123.368 113.109 123.799 110.483 124.232 109.901C124.469 109.679 124.963 109.305 125.381 109.181C125.986 108.926 126.285 108.913 126.854 109.047C127.785 109.376 128.359 110.038 128.558 110.963C128.84 112.166 128.339 114.812 127.767 115.436C127.195 116.06 126.013 116.411 125.194 116.2ZM141.758 122.03C143.265 122.263 144.137 123.67 143.805 125.357C143.325 128.073 140.671 137.489 139.613 140.3C137.856 144.833 135.986 147.204 133.385 148.128C132.779 148.383 131.994 148.541 131.605 148.505C128.894 148.553 126.106 146.807 124.571 143.933C123.313 141.733 122.574 137.714 122.595 132.94C122.577 129.313 123.223 122.309 123.727 120.949C124.309 119.338 126.367 118.879 127.615 120.022C128.419 120.691 128.618 121.616 128.356 123.283C127.396 130.758 127.414 136.429 128.467 139.976C128.88 141.367 129.074 141.764 129.538 142.307C131.858 145.024 133.699 142.813 136.281 134.175C136.906 131.946 138.375 126.44 138.951 124.301C139.233 122.703 140.341 121.845 141.758 122.03ZM144.389 148.418C143.563 145.636 144.694 141.289 147.804 135.447L149.417 132.47L148.675 132.01C148.314 131.814 147.003 131.219 145.712 130.694C144.421 130.17 142.949 129.547 142.408 129.253C141.305 128.597 140.086 127.294 139.657 126.361C137.71 122.096 142.199 112.741 148.138 108.783C150.227 107.406 152.862 106.851 154.952 107.517C157.042 108.184 157.919 110.118 156.649 111.706C156.07 112.559 155.215 112.737 154.006 112.49C153.187 112.28 152.749 112.334 152.053 112.54C149.132 113.408 145.093 118.921 144.365 122.845C144.034 124.533 144.235 124.7 147.997 126.156C149.288 126.681 150.711 127.394 151.231 127.618L152.133 128.107L154.582 124.883C157.296 121.277 159.932 117.921 161.055 116.604C162.602 114.934 164.818 115.26 165.417 117.277C165.768 118.459 165.467 119.23 163.961 121.039C162.12 123.251 156.26 131.045 155.987 131.655C155.889 131.836 156.062 132.163 156.428 132.887C157.21 134.244 158.103 137.763 158.14 139.417C158.052 143.454 156.505 147.168 153.899 149.606C151.962 151.241 150.285 151.966 148.541 151.954C146.686 151.823 144.987 150.435 144.389 148.418ZM151.657 138.995C150.455 141.32 149.552 143.631 149.298 145.069C149.007 146.896 149.208 147.063 150.56 145.754C151.627 144.756 152.486 143.063 152.838 141.445C153.064 140.167 153.056 138.353 152.808 137.518C152.664 137.032 152.615 137.122 151.657 138.995ZM163.434 104.848C162.594 104.568 161.978 103.767 161.758 102.772C161.608 101.757 162.04 99.1318 162.472 98.5493C162.709 98.3276 163.204 97.9537 163.621 97.8299C164.227 97.5745 164.525 97.5615 165.095 97.6951C166.025 98.0244 166.6 98.6863 166.799 99.6111C167.08 100.814 166.579 103.46 166.008 104.084C165.436 104.708 164.254 105.059 163.434 104.848ZM179.998 110.678C181.506 110.912 182.377 112.318 182.046 114.006C181.565 116.721 178.911 126.137 177.854 128.948C176.096 133.481 174.227 135.853 171.625 136.776C171.02 137.032 170.234 137.189 169.845 137.153C167.135 137.201 164.346 135.456 162.812 132.581C161.553 130.381 160.814 126.363 160.835 121.588C160.818 117.961 161.464 110.958 161.968 109.597C162.549 107.987 164.608 107.527 165.855 108.67C166.659 109.34 166.858 110.265 166.596 111.932C165.637 119.406 165.655 125.077 166.708 128.624C167.121 130.015 167.314 130.412 167.778 130.955C170.098 133.672 171.939 131.461 174.522 122.823C175.147 120.594 176.615 115.088 177.191 112.949C177.474 111.352 178.581 110.493 179.998 110.678ZM178 123.002C176.906 119.316 176.798 115.639 177.597 110.937C178.247 107.262 179.047 104.603 180.416 102.077C182.96 97.387 186.148 95.381 188.249 97.1035C188.651 97.4383 188.803 97.6958 188.989 98.3218L189.188 99.2466L190.056 99.3673C191.952 99.6369 194.151 101.179 195.548 103.337C196.095 104.159 196.461 104.883 196.977 106.622L197.818 108.945L198.681 108.538C199.892 108.027 200.979 107.099 202.506 105.359C204.319 103.307 204.674 102.975 205.369 102.768C207.456 102.149 209.132 104.224 208.216 106.237C207.796 107.119 205.788 109.531 204.227 110.903C202.527 112.315 201.309 113.055 199.501 113.592L198.11 114.005L198.015 115.471C197.988 117.674 197.289 121.438 196.602 123.459C195.46 126.749 193.84 129.198 191.842 130.624C190.665 131.503 188.717 132.081 187.411 132.015C185.257 131.897 183.064 130.883 181.332 129.127C179.801 127.538 178.785 125.645 178 123.002ZM182.231 118.643C182.733 122.883 184.62 126.183 187.009 126.836C187.919 127.096 188.475 126.931 189.304 126.155C190.795 124.804 191.936 122.271 192.529 118.916C192.917 116.909 193.106 113.977 192.962 113.49C192.92 113.351 192.588 112.995 192.137 112.751C189.562 111.472 186.17 107.181 185.643 104.386L185.444 103.461L184.738 104.654C182.978 107.901 181.77 114.541 182.231 118.643ZM206.064 124.812C204.688 122.724 203.844 116.314 204.15 109.185C204.2 106.294 205.12 95.8796 205.551 93.254C205.857 90.9685 206.624 89.9839 208.028 89.8699C209.154 89.8384 210.319 90.7034 210.629 91.7467C210.69 91.9554 210.519 93.6714 210.368 95.4569C209.668 102.022 209.186 107.538 209.172 110.04C209.109 112.632 209.136 115.273 209.316 115.371C209.316 115.371 209.661 113.982 210.152 112.322C212.112 105.156 213.779 100.575 215.98 96.5156C218.229 92.3664 219.944 90.495 221.884 90.1462C224.123 89.7844 225.945 91.5895 226.235 94.6064C226.31 95.1139 226.232 98.1644 226.174 101.285C226 108.602 226.138 111.361 226.985 114.213C227.212 114.978 227.418 115.673 227.509 115.722C227.779 115.869 229.254 112.934 229.851 110.864C230.53 109.073 232.068 103.546 233.544 97.8103C234.205 95.1924 234.4 94.8316 234.923 94.298C236.393 92.8776 238.594 93.6623 238.984 95.7413C239.08 96.3184 238.756 97.7768 237.941 100.895C235.313 110.908 234.268 114.018 232.822 116.794C231.424 119.479 230.546 120.345 228.738 120.882C227.555 121.233 227.326 121.225 226.506 121.015C225.368 120.747 224.092 119.764 223.303 118.636C222.867 117.932 222.612 117.327 222.095 115.588C220.96 111.763 220.783 108.107 221.265 97.747C221.28 97.2884 219.715 100.175 218.799 102.187C217.224 106.061 215.66 110.99 214.043 117.525C213.593 119.323 213.065 121.372 212.855 122.191C211.962 125.559 210.7 126.918 208.644 126.62C207.706 126.52 206.652 125.773 206.064 124.812Z" fill="url(#paint1_linear_343_577)"/>
<defs>
<linearGradient id="paint0_linear_343_577" x1="-0.431186" y1="72.5172" x2="117.933" y2="232.489" gradientUnits="userSpaceOnUse">
<stop offset="0.168269" stop-color="#C1333F"/>
<stop offset="0.658654" stop-color="#FFCA00"/>
<stop offset="1" stop-color="#FFCA00"/>
</linearGradient>
<linearGradient id="paint1_linear_343_577" x1="-0.431186" y1="72.5172" x2="117.933" y2="232.489" gradientUnits="userSpaceOnUse">
<stop offset="0.168269" stop-color="#C1333F"/>
<stop offset="0.658654" stop-color="#EC9E00"/>
<stop offset="1" stop-color="#FFCA00"/>
</linearGradient>
</defs>
</svg>
